<svg width="55" height="100" viewBox="0 0 55 100" fill="none" xmlns="http://www.w3.org/2000/svg">
<g clip-path="url(#clip0_26_28518)">
<path d="M53.4766 53.7616C53.4939 53.7442 53.4939 53.7095 53.5113 53.6921C53.5113 53.6401 53.5113 53.5706 53.4939 53.5186C53.4766 53.588 53.4766 53.6748 53.4766 53.7616Z" fill="black"/>
<path d="M29.209 99.0512C32.4378 99.0165 35.7013 98.4783 38.7739 97.4368C48.4951 93.1664 55.2825 83.4973 55.2825 72.2485C55.2825 69.4537 54.8486 66.7456 54.0674 64.1938C53.807 63.3085 53.373 62.51 53.0259 61.6768C50.9775 77.1091 42.0548 90.5104 29.209 99.0512Z" fill="#AA1F23"/>
<path d="M50.4556 65.2708C44.7618 80.2692 33.1658 91.3964 19.0527 97.2986C19.452 97.4375 19.8512 97.6284 20.2331 97.7499C23.0801 98.6873 26.1353 99.1039 29.2252 99.0692C42.0711 90.5111 50.9937 77.1271 53.0595 61.6948C52.7817 61.0351 52.5734 60.3408 52.2436 59.7158C51.7402 61.5733 51.15 63.4307 50.4556 65.2708Z" fill="#E83C25"/>
<path d="M3.72461 85.0079C5.14807 87.3687 6.90134 89.5907 8.65463 91.2572C11.3974 93.8437 15.4074 95.9615 19.0528 97.2982C33.1832 91.3961 44.7618 80.2688 50.4557 65.2704C51.15 63.4303 51.7402 61.5729 52.2437 59.7154C51.9138 59.0905 51.4972 58.535 51.1327 57.9448C40.8907 74.6618 22.9413 84.2614 3.72461 85.0079Z" fill="#EC6124"/>
<path d="M51.1327 57.9449C50.7682 57.372 50.421 56.7818 50.0217 56.2437C37.228 69.0895 18.7404 75.1131 0.166016 72.7349C0.30489 74.9743 0.600009 77.1963 1.1555 79.3314C1.64156 81.1889 2.57896 83.1331 3.70731 84.9906C22.9413 84.2615 40.8908 74.6618 51.1327 57.9449Z" fill="#FAB336"/>
<path d="M49.4494 55.3586C47.5746 52.6158 45.4568 50.0814 43.2001 47.8768C39.9713 44.7 37.1418 41.9052 36.4647 35.9163C36.4474 35.8121 36.4474 35.6906 36.43 35.5691C36.4127 35.3434 36.4127 35.0657 36.3953 34.8226C36.4821 32.3229 37.9229 29.5281 37.4889 30.2224C36.9855 31.0383 35.5794 33.6596 35.5794 33.6596V33.6769C33.479 37.2703 33.2012 41.3323 33.4963 45.3423C33.6526 47.356 33.9303 49.3697 34.2254 51.2965C35.267 58.2229 36.1523 64.2292 29.8856 66.7289C29.2954 66.9025 28.6878 66.9719 28.0976 66.9719C25.5284 66.9719 23.2717 65.3749 22.0566 62.7189C21.1539 60.74 19.5048 54.942 24.3133 44.9257C26.5005 40.3602 30.0245 34.9268 35.5794 28.5733C37.8361 25.8479 39.52 23.2614 40.7872 20.8311C42.3148 17.9321 43.2522 15.2588 43.773 12.7938C44.9187 7.4124 44.1549 3.1073 43.582 0C43.1307 2.7254 41.9676 5.55495 40.4747 8.34979C39.1207 10.8669 37.5063 13.3493 35.7357 15.6928C33.6178 18.5049 31.3611 21.0915 29.3127 23.2961C29.3127 23.2961 29.278 23.3308 29.2086 23.4002C27.1949 25.5528 25.3722 27.3408 24.1223 28.5039C22.3864 30.2745 20.4595 32.3055 18.6368 34.3018C10.8599 43.1551 3.53428 52.3902 0.913035 62.771C0.218665 65.4964 -0.05909 68.3607 0.0103469 71.2076C0.0277062 71.711 0.0971558 72.1971 0.131874 72.7005C18.7063 75.0613 37.1938 69.0377 49.9876 56.2092C49.814 55.9488 49.6751 55.6364 49.4494 55.3586Z" fill="#F4D038"/>
</g>
<defs>
<clipPath id="clip0_26_28518">
<rect width="55" height="100" fill="white"/>
</clipPath>
</defs>
</svg>